<?xml version="1.0"?>
<svg xmlns="http://www.w3.org/2000/svg" height="512px" viewBox="-34 0 512 512" width="512px" class=""><g><path d="m437.265625 130.777344v-46.328125c0-9.246094-6.5-17.21875-15.554687-19.078125l-34.378907-7.058594v-13.316406c0-20.609375-16.707031-37.316406-37.316406-37.316406h-306.007813c-5.898437 0-10.679687 4.785156-10.679687 10.679687v474.964844c0 5.898437 4.78125 10.679687 10.679687 10.679687h306.007813c20.609375 0 37.316406-16.707031 37.316406-37.3125v-13.316406l34.464844-7.238281c9.015625-1.894531 15.472656-9.847657 15.472656-19.058594v-46.332031c0-9.246094-6.503906-17.21875-15.558593-19.078125l-34.378907-7.058594 34.464844-7.238281c9.015625-1.894532 15.472656-9.847656 15.472656-19.058594v-46.332031c0-9.246094-6.5-17.21875-15.558593-19.078125l-34.378907-7.058594 34.464844-7.238281c9.015625-1.894531 15.472656-9.847657 15.472656-19.058594v-46.332031c0-9.246094-6.5-17.21875-15.558593-19.078125l-34.378907-7.058594 34.464844-7.238281c9.015625-1.894532 15.46875-9.847656 15.46875-19.0625zm0 0" fill="#b9d3fd" data-original="#B9D3FD"/><path d="m387.332031 45v421.6875c0 20.613281-16.707031 37.308594-37.308593 37.308594h-306.019532c-5.894531 0-10.679687-4.78125-10.679687-10.667969v-474.96875c0-5.90625 4.785156-10.667969 10.679687-10.667969h306.019532c20.601562 0 37.308593 16.699219 37.308593 37.308594zm0 0" fill="#4172cc" data-original="#4172CC" class="" style="fill:#FFFFFF" data-old_color="#ffffff"/><path d="m387.328125 44.996094v388.292968c0 20.605469-16.699219 37.308594-37.308594 37.308594h-272.722656c-5.894531 0-10.675781-4.785156-10.675781-10.675781v-452.234375h283.398437c20.609375 0 37.308594 16.699219 37.308594 37.308594zm0 0" fill="#6990d7" data-original="#6990D7" class="" style="fill:#FFFFFF" data-old_color="#ffffff"/><path d="m421.792969 149.839844-34.464844 7.238281v-98.765625l34.378906 7.058594c9.058594 1.859375 15.558594 9.832031 15.558594 19.078125v46.328125c0 9.214844-6.453125 17.167968-15.472656 19.0625zm0 0" fill="#2e5aac" data-original="#2E5AAC" class="" style="fill:#FFFFFF" data-old_color="#ffffff"/><path d="m421.792969 248.605469-34.464844 7.238281v-98.765625l34.378906 7.058594c9.058594 1.859375 15.558594 9.832031 15.558594 19.078125v46.328125c0 9.214843-6.453125 17.167969-15.472656 19.0625zm0 0" fill="#1ed688" data-original="#1ED688" class="" style="fill:#6C63FF" data-old_color="#6c63ff"/><path d="m421.792969 347.371094-34.464844 7.238281v-98.765625l34.378906 7.058594c9.058594 1.859375 15.558594 9.832031 15.558594 19.078125v46.328125c0 9.214844-6.453125 17.167968-15.472656 19.0625zm0 0" fill="#2e5aac" data-original="#2E5AAC" class="" style="fill:#FFFFFF" data-old_color="#ffffff"/><path d="m421.792969 446.136719-34.464844 7.234375v-98.765625l34.378906 7.0625c9.058594 1.859375 15.558594 9.828125 15.558594 19.074219v46.332031c0 9.214843-6.453125 17.167969-15.472656 19.0625zm0 0" fill="#1ed688" data-original="#1ED688" class="" style="fill:#6C63FF" data-old_color="#6c63ff"/><path d="m107.234375 503.996094h-63.230469c-5.894531 0-10.679687-4.78125-10.679687-10.667969v-474.96875c0-5.90625 4.785156-10.667969 10.679687-10.667969h63.199219v496.09375zm0 0" fill="#1ab975" data-original="#1AB975" class="active-path" style="fill:#6C63FF" data-old_color="#6c63ff"/><path d="m107.203125 7.691406v462.910156h-29.90625c-5.894531 0-10.679687-4.785156-10.679687-10.679687v-452.230469zm0 0" fill="#ffc14f" data-original="#FFC14F" class=""/><path d="m107.203125 7.691406v462.910156h-29.90625c-5.894531 0-10.679687-4.785156-10.679687-10.679687v-452.230469zm0 0" fill="#1ed688" data-original="#1ED688" class="" style="fill:#6C63FF" data-old_color="#6c63ff"/><path d="m444.902344 130.8125v-46.382812c0-12.792969-9.097656-23.953126-21.632813-26.527344l-28.355469-5.820313v-7.144531c0-24.777344-20.15625-44.9375-44.9375-44.9375h-306.320312c-10.078125 0-18.277344 8.199219-18.277344 18.277344v54.835937h-17.792968c-4.191407 0-7.585938 3.394531-7.585938 7.585938 0 4.1875 3.394531 7.582031 7.585938 7.582031h17.792968v54.953125h-17.792968c-4.191407 0-7.585938 3.394531-7.585938 7.582031 0 4.191406 3.394531 7.585938 7.585938 7.585938h17.792968v54.953125h-17.792968c-4.191407 0-7.585938 3.394531-7.585938 7.582031 0 4.191406 3.394531 7.585938 7.585938 7.585938h17.792968v54.953124h-17.792968c-4.191407 0-7.585938 3.394532-7.585938 7.585938 0 4.1875 3.394531 7.582031 7.585938 7.582031h17.792968v54.953125h-17.792968c-4.191407 0-7.585938 3.394532-7.585938 7.585938 0 4.1875 3.394531 7.582031 7.585938 7.582031h17.792968v54.953125h-17.792968c-4.191407 0-7.585938 3.394531-7.585938 7.582031 0 4.191407 3.394531 7.585938 7.585938 7.585938h17.792968v54.835937c0 10.078125 8.199219 18.277344 18.277344 18.277344h306.320312c24.78125 0 44.9375-20.160156 44.9375-44.9375v-7.171875l28.472657-5.980469c12.46875-2.617187 21.515625-13.761718 21.515625-26.5v-25.882812c0-4.191406-3.394532-7.585938-7.585938-7.585938-4.1875 0-7.582031 3.394532-7.582031 7.585938v25.882812c0 5.601563-3.980469 10.503906-9.460937 11.652344l-25.359376 5.328125v-80.222656l25.304688 5.195312c3.414062.699219 6.34375 2.855469 8.035156 5.910157 2.027344 3.667968 6.644532 4.996093 10.308594 2.964843s4.992188-6.644531 2.960938-10.308593c-3.644532-6.589844-9.828126-11.328126-17.085938-13.152344 11.917969-3.011719 20.464844-13.859375 20.464844-26.234375v-46.378907c0-12.40625-8.5625-23.246093-20.507813-26.242187 11.941407-2.996094 20.507813-13.855469 20.507813-26.242187v-46.378907c0-12.40625-8.558594-23.246093-20.503906-26.246093 11.9375-2.996094 20.503906-13.855469 20.503906-26.242188zm-345.285156 366.019531h-55.960938c-1.710938 0-3.105469-1.394531-3.105469-3.105469v-54.839843h16.589844c4.191406 0 7.585937-3.394531 7.585937-7.582031 0-4.191407-3.394531-7.585938-7.585937-7.585938h-16.589844v-54.949219h16.589844c4.191406 0 7.585937-3.398437 7.585937-7.585937 0-4.191406-3.394531-7.585938-7.585937-7.585938h-16.589844v-54.949218h16.589844c4.191406 0 7.585937-3.394532 7.585937-7.585938s-3.394531-7.585938-7.585937-7.585938h-16.589844v-54.953124h16.589844c4.191406 0 7.585937-3.394532 7.585937-7.582032 0-4.191406-3.394531-7.585937-7.585937-7.585937h-16.589844v-54.949219h16.589844c4.191406 0 7.585937-3.398438 7.585937-7.585938 0-4.191406-3.394531-7.585937-7.585937-7.585937h-16.589844v-54.949219h16.589844c4.191406 0 7.585937-3.398437 7.585937-7.585937 0-4.191407-3.394531-7.585938-7.585937-7.585938h-16.589844v-54.835937c0-1.710938 1.390625-3.105469 3.105469-3.105469h55.960938zm280.128906-438.5625v296.597657 112.199218c0 16.414063-13.355469 29.765625-29.769532 29.765625h-235.1875v-481.660156h235.1875c16.414063 0 29.769532 13.351563 29.769532 29.765625zm49.988281 223.894531v46.378907c0 5.601562-3.980469 10.503906-9.460937 11.65625l-25.359376 5.324219v-80.222657l25.304688 5.195313c5.511719 1.132812 9.515625 6.039062 9.515625 11.667968zm0-98.867187v46.378906c0 5.601563-3.980469 10.503907-9.460937 11.65625l-25.359376 5.324219v-80.222656l25.304688 5.199218c5.511719 1.128907 9.515625 6.039063 9.515625 11.664063zm0-52.484375c0 5.601562-3.980469 10.503906-9.460937 11.652344l-25.359376 5.328125v-80.222657l25.304688 5.195313c5.515625 1.132813 9.515625 6.039063 9.515625 11.664063zm0 0" data-original="#000000" class="" style="fill:#000000"/><path d="m335.941406 73.113281h-179.589844c-4.1875 0-7.585937 3.394531-7.585937 7.585938 0 4.1875 3.398437 7.585937 7.585937 7.585937h179.589844c4.191406 0 7.585938-3.398437 7.585938-7.585937 0-4.191407-3.394532-7.585938-7.585938-7.585938zm0 0" data-original="#000000" class="" style="fill:#000000"/><path d="m335.941406 113.566406h-179.589844c-4.1875 0-7.585937 3.398438-7.585937 7.585938 0 4.191406 3.398437 7.585937 7.585937 7.585937h179.589844c4.191406 0 7.585938-3.394531 7.585938-7.585937 0-4.1875-3.394532-7.585938-7.585938-7.585938zm0 0" data-original="#000000" class="" style="fill:#000000"/><path d="m335.941406 154.023438h-179.589844c-4.1875 0-7.585937 3.394531-7.585937 7.585937 0 4.1875 3.398437 7.582031 7.585937 7.582031h179.589844c4.191406 0 7.585938-3.394531 7.585938-7.582031 0-4.191406-3.394532-7.585937-7.585938-7.585937zm0 0" data-original="#000000" class="" style="fill:#000000"/><path d="m335.941406 424.042969h-179.589844c-4.1875 0-7.585937 3.394531-7.585937 7.585937 0 4.1875 3.398437 7.582032 7.585937 7.582032h179.589844c4.191406 0 7.585938-3.394532 7.585938-7.582032 0-4.191406-3.394532-7.585937-7.585938-7.585937zm0 0" data-original="#000000" class="" style="fill:#000000"/></g> </svg>
